<svg xmlns="http://www.w3.org/2000/svg" width="170" height="42" viewBox="0 0 170 42">
  <path fill-rule="evenodd" d="M782.735477,133.931387 L657.279516,133.931387 C646.6885,133.968516 640.284513,126.78957 640.284513,118.00404 C640.284513,109.323877 646.72948,102.207147 657.279516,102.198116 L782.735477,102.198116 C793.283514,102.207147 799.791451,109.323877 799.791451,118.00404 C799.791451,126.78957 793.316498,133.968516 782.735477,133.931387 L782.735477,133.931387 Z M782.79445,97.0000529 L657.209548,97.0000529 C643.933796,96.9739622 635,106.607438 635,118.038159 C635,129.582274 643.914805,138.989965 657.242533,139 L782.768462,139 C796.09619,138.989965 805,129.582274 805,118.038159 C805,106.607438 796.084196,96.9739622 782.79445,97.0000529 L782.79445,97.0000529 Z M789.361359,111.015757 L788.953551,111.015757 L788.953551,110.0785 L789.306385,110.0785 C789.812147,110.0785 790.046037,110.178848 790.046037,110.549135 C790.046037,110.863227 789.82814,111.015757 789.361359,111.015757 L789.361359,111.015757 Z M790.905633,110.481901 C790.905633,109.951057 790.434854,109.610875 789.461312,109.610875 L788.132937,109.610875 L788.132937,112.893281 L788.953551,112.893281 L788.953551,111.508469 L789.361359,111.508469 L790.000059,112.893281 L790.924624,112.893281 L790.163982,111.38504 C790.608772,111.269639 790.905633,110.93046 790.905633,110.481901 L790.905633,110.481901 Z M789.386348,113.703095 C788.015992,113.703095 786.983478,112.621336 786.983478,111.236524 C786.983478,109.996214 788.015992,108.870301 789.386348,108.870301 C790.754704,108.870301 791.848189,109.996214 791.848189,111.236524 C791.848189,112.621336 790.754704,113.703095 789.386348,113.703095 L789.386348,113.703095 Z M789.386348,108.284265 C787.704139,108.284265 786.378763,109.660046 786.378763,111.236524 C786.378763,112.941448 787.704139,114.305187 789.386348,114.305187 C791.065557,114.305187 792.437912,112.941448 792.437912,111.236524 C792.437912,109.660046 791.065557,108.284265 789.386348,108.284265 L789.386348,108.284265 Z M720.826611,116.703521 C721.241416,115.900732 722.088017,115.496326 722.84766,115.496326 C723.644285,115.496326 724.481891,115.900732 724.963664,116.703521 C725.342486,117.380875 725.352481,118.135497 725.342486,119.286497 L720.438794,119.286497 C720.416804,118.135497 720.444791,117.380875 720.826611,116.703521 L720.826611,116.703521 Z M731.589546,121.352677 C731.589546,117.24139 727.638405,113.854621 722.806679,113.854621 C718.027928,113.854621 714.096778,117.187202 714.096778,121.270391 C714.096778,125.372646 718.027928,128.692181 722.806679,128.692181 C726.831785,128.692181 730.211195,126.395199 731.263699,123.273351 L725.3115,123.273351 C725.3115,123.273351 725.326493,123.33356 725.326493,124.083165 C725.326493,126.48752 723.74024,127.036427 722.84766,127.036427 C721.991063,127.036427 720.438794,126.48752 720.438794,124.083165 L720.438794,121.352677 C720.438794,121.352677 731.589546,121.369736 731.589546,121.352677 L731.589546,121.352677 Z M743.99171,114.080406 C742.027634,114.138608 740.384407,114.987558 739.255938,116.058279 C739.247942,115.757233 739.255938,114.686512 739.255938,114.686512 L733.403692,114.686512 L733.385701,127.885377 L739.255938,127.885377 C739.255938,127.885377 739.247942,119.796268 739.247942,119.220267 C739.247942,118.063246 740.458373,116.7838 742.065616,116.7838 C743.704845,116.7838 744.792333,118.063246 744.792333,119.220267 L744.792333,127.885377 L750.650726,127.885377 L750.650576,120.709441 C750.680562,115.472243 746.213664,114.014176 743.99171,114.080406 L743.99171,114.080406 Z M695.7744,114.080406 C693.873295,114.138608 692.222072,114.987558 691.097601,116.058279 C691.068615,115.757233 691.097601,114.686512 691.097601,114.686512 L685.178387,114.686512 L685.195379,127.885377 L691.097601,127.885377 C691.097601,127.885377 691.068615,119.796268 691.068615,119.220267 C691.068615,118.063246 692.287041,116.7838 693.915275,116.7838 C695.473542,116.7838 696.576023,118.063246 696.576023,119.220267 L696.576023,127.885377 L702.491351,127.885377 C702.491351,127.885377 702.479245,121.634657 702.491239,120.709441 C702.517227,115.472243 698.007349,114.014176 695.7744,114.080406 L695.7744,114.080406 Z M763.474541,121.239283 L763.474541,123.565366 C763.474541,125.619504 762.063206,126.144327 761.141639,126.144327 C760.240063,126.144327 758.855715,125.619504 758.855715,123.565366 C758.855715,122.867942 758.875706,121.213192 758.875706,121.213192 C758.875706,121.213192 758.855715,119.547403 758.855715,118.861018 C758.855715,116.820929 760.240063,116.294098 761.141639,116.294098 C762.063206,116.294098 763.474541,116.820929 763.474541,118.861018 L763.474541,121.239283 Z M763.432561,115.346807 C762.487006,114.808938 761.468485,114.287124 760.11912,114.166706 C755.811148,113.788391 752.544685,117.587593 752.544685,121.075714 C752.544685,125.670681 756.080021,127.383634 756.604774,127.628485 C758.603833,128.566745 761.130644,128.566745 763.428563,127.13778 L763.428563,127.885377 L769.309795,127.885377 L769.309795,108.130731 L763.432561,108.130731 L763.432561,115.346807 Z M782.266698,121.190112 L782.266698,123.968767 C782.266698,126.09315 781.02928,126.960162 779.838841,126.960162 C778.655397,126.960162 777.389993,126.09315 777.389993,123.968767 C777.389993,123.175009 777.397989,121.138934 777.397989,121.138934 L777.397989,118.382355 C777.397989,116.277039 778.661395,115.421065 779.832843,115.421065 C781.019285,115.421065 782.266698,116.277039 782.266698,118.382355 L782.266698,121.190112 Z M779.894814,113.788391 C775.089076,113.788391 771.234889,117.107926 771.234889,121.190112 C771.234889,125.29036 775.089076,128.625951 779.894814,128.625951 C784.70555,128.625951 788.53175,125.29036 788.53175,121.190112 C788.53175,117.107926 784.70555,113.788391 779.894814,113.788391 L779.894814,113.788391 Z M675.986712,112.094505 L681.909925,112.094505 L681.909925,108.130731 L675.986712,108.130731 L675.986712,112.094505 Z M676.000706,127.896416 L681.909925,127.896416 L681.909925,114.685509 L676.000706,114.685509 L676.000706,127.896416 Z M714.868415,112.751789 L711.652928,112.751789 L711.652928,110.0785 L705.765698,110.0785 L705.765698,112.751789 L702.517227,112.751789 L702.517227,114.709592 L705.765698,114.709592 L705.765698,127.896416 L711.652928,127.896416 L711.652928,114.709592 L714.868415,114.709592 L714.868415,112.751789 Z M666.53516,121.891549 L658.003175,108.130731 L651.885054,108.130731 L651.885054,127.896416 L657.955198,127.896416 L657.955198,114.058329 L666.53516,127.896416 L672.595308,127.896416 L672.595308,108.130731 L666.53516,108.130731 L666.53516,121.891549 Z" transform="translate(-635 -97)"/>
</svg>
