<svg xmlns="http://www.w3.org/2000/svg" xmlns:xlink="http://www.w3.org/1999/xlink" width="175" height="20" viewBox="0 0 175 20">
  <defs>
    <polygon id="logo-pokemon-company-a" points=".246 .193 70.877 .193 70.877 15.906 .246 15.906"/>
    <polygon id="logo-pokemon-company-c" points="73.683 17.848 .225 17.848 .225 .132 73.683 .132"/>
    <polygon id="logo-pokemon-company-e" points="0 15.269 0 .163 29.558 .163 29.558 15.269"/>
  </defs>
  <g fill="none" fill-rule="evenodd">
    <g transform="translate(29.96 .126)">
      <mask id="logo-pokemon-company-b" fill="#fff">
        <use xlink:href="#logo-pokemon-company-a"/>
      </mask>
      <path fill="#000" d="M66.1187715,4.13550682 C65.6002156,4.13550682 65.103014,4.19383241 64.6466083,4.31590179 L59.8017604,4.31590179 C59.3858321,4.31590179 59.0371535,4.61677255 58.962892,5.01325902 C57.9809186,4.45422585 56.7812602,4.13550682 55.4346724,4.13550682 C53.6278542,4.13550682 52.0884413,4.70537644 50.9735622,5.67491971 C50.2232976,4.65406268 49.0271451,4.13550682 47.3921165,4.13550682 C46.3766777,4.13550682 45.4405999,4.39398795 44.6514516,4.89118963 C43.9346525,4.40099977 43.0409644,4.13550682 42.0500669,4.13550682 C41.5299175,4.13550682 41.0397276,4.19383241 40.5830033,4.31590179 L36.614314,4.31590179 L35.7789514,0.847920091 C35.6623003,0.373666184 35.1931459,0.0922372856 34.7243102,0.226736714 C34.260574,0.354224323 27.5384711,2.19960747 27.5384711,2.19960747 C27.0871649,2.32709508 26.8200784,2.79242486 26.9421478,3.2472369 C27.0623048,3.70013664 27.2321821,4.31590179 27.2321821,4.31590179 L24.5249827,4.31590179 L24.5249827,1.65842257 C24.5249827,1.18926817 24.1444322,0.800112238 23.6701783,0.800112238 L19.2058809,0.800112238 C18.7335393,0.800112238 18.3494829,1.18926817 18.3494829,1.65842257 L18.3494829,5.00433488 C17.3675096,4.44689531 16.174863,4.13550682 14.8422987,4.13550682 C13.6018443,4.13550682 12.4888775,4.40099977 11.5512061,4.88768372 C10.9618946,3.24022509 9.36574975,1.59977827 5.35626443,1.59977827 L1.09881571,1.59977827 C0.62424308,1.59977827 0.24560488,1.98383469 0.24560488,2.45267038 L0.24560488,14.8693261 C0.24560488,15.3416677 0.62424308,15.7238118 1.09881571,15.7238118 L5.65681647,15.7238118 C6.12597087,15.7238118 6.50970858,15.3416677 6.50970858,14.8693261 L6.50970858,11.9584653 C7.3007692,11.9090638 8.02075547,11.7497043 8.6578748,11.5071591 C9.29850004,14.1579453 11.662439,15.9061191 14.8422987,15.9061191 C16.1853807,15.9061191 17.3815332,15.5912247 18.3670124,15.0318728 C18.4431863,15.4232598 18.7864467,15.7238118 19.2058809,15.7238118 L30.5659831,15.7238118 C31.0931443,15.8423753 31.6524962,15.9061191 32.2453136,15.9061191 C32.9477703,15.9061191 33.6113433,15.8477935 34.2360326,15.7238118 L51.0691779,15.7238118 C51.4866998,15.7238118 51.8353784,15.4232598 51.9080464,15.0286856 C52.8900197,15.5912247 54.0861722,15.9061191 55.4346724,15.9061191 C56.7812602,15.9061191 57.9809186,15.5912247 58.962892,15.0286856 C59.0371535,15.4232598 59.3858321,15.7238118 59.8017604,15.7238118 L70.0221234,15.7238118 C70.4912778,15.7238118 70.8769278,15.3416677 70.8769278,14.8693261 L70.8769278,9.03358079 C70.8769278,6.09977217 68.9642949,4.13550682 66.1187715,4.13550682" mask="url(#logo-pokemon-company-b)"/>
    </g>
    <g transform="translate(101.034 1.4)">
      <mask id="logo-pokemon-company-d" fill="#fff">
        <use xlink:href="#logo-pokemon-company-c"/>
      </mask>
      <path fill="#000" d="M72.8065484,3.03755166 L68.1688679,3.03755166 C67.8185957,3.03755166 67.4555747,3.29762638 67.3564531,3.63228136 C67.248726,3.9631117 67.0963783,4.44246512 67.0963783,4.44246512 L66.8257859,3.62144491 C66.7193337,3.29412047 66.3569502,3.03755166 66.0152834,3.03755166 L60.9492445,3.03755166 C60.4998507,2.91739459 60.0255968,2.85365078 59.5178774,2.85365078 C58.9958156,2.85365078 58.5056258,2.91197636 58.0457142,3.03404575 L53.2005476,3.03404575 C52.8607931,3.03404575 52.5707588,3.23388258 52.4308412,3.52423561 C51.593885,3.08886542 50.5765339,2.85365078 49.394405,2.85365078 C47.9432773,2.85365078 46.7315076,3.07101716 45.5598965,3.53825925 L44.5125857,3.96821121 C43.7020833,3.28009684 42.6598721,2.85365078 41.4318477,2.85365078 C40.9132918,2.85365078 40.4090783,2.91739459 39.9456608,3.03755166 L35.0208145,3.03755166 C34.7801816,3.03755166 34.5589906,3.1420915 34.4034557,3.3046382 C33.7733482,3.00567976 33.0195777,2.85365078 32.1313078,2.85365078 C31.1085385,2.85365078 30.1740543,3.11181319 29.3884119,3.60901487 C28.6703379,3.11882501 27.7801557,2.85365078 26.7854336,2.85365078 C26.2707024,2.85365078 25.7699948,2.91197636 25.3167764,3.03404575 L20.4738408,3.03404575 C20.0524942,3.03404575 19.7060467,3.33491651 19.6349723,3.73108425 C18.6494931,3.17205109 17.4568465,2.85365078 16.1102586,2.85365078 C14.8787283,2.85365078 13.7727733,3.11882501 12.8437074,3.59307892 L13.0139033,1.86243462 C13.0578865,1.47136637 12.7837882,1.06818681 12.4083372,0.953129241 C12.0367108,0.846995806 11.7342464,0.754886008 11.7342464,0.754886008 C10.7522731,0.466445292 9.45508669,0.132109035 8.0680215,0.132109035 C3.30094106,0.132109035 0.225302478,2.99516203 0.225302478,7.4259939 C0.225302478,12.3983294 4.1694504,14.6242631 8.08555105,14.6242631 C9.72599787,14.6242631 10.7838263,14.3657819 11.6319376,14.1554274 L12.8048236,13.8634807 C13.7460009,14.3517583 14.8627924,14.6242631 16.1102586,14.6242631 C17.4568465,14.6242631 18.6494931,14.3093687 19.6349723,13.7500168 C19.7060467,14.141085 20.0524942,14.4419558 20.4738408,14.4419558 L34.1714283,14.4419558 L34.1714283,16.8097194 C34.1714283,17.2890728 34.5538911,17.6657987 35.0208145,17.6657987 L39.4994542,17.6657987 C39.9666963,17.6657987 40.3450158,17.2890728 40.3450158,16.8097194 L40.3450158,14.5605193 C40.6229388,14.6048212 40.9097859,14.6242631 41.1963143,14.6242631 C42.5817859,14.6242631 43.7763448,14.1519215 44.6840566,13.3235707 C45.5210127,14.1394914 46.7366071,14.6242631 48.2017584,14.6242631 C48.6903547,14.6242631 49.1502663,14.5659375 49.5821305,14.4419558 L61.4110684,14.4419558 L61.2217493,16.5633496 C61.193702,16.975772 61.4907482,17.3846885 61.9031706,17.4729737 C62.3066689,17.5564781 62.6355869,17.626915 62.6355869,17.626915 C63.3256136,17.781175 64.0051225,17.8484247 64.7165034,17.8484247 C68.2714954,17.8484247 69.3156189,15.1249706 70.0799071,13.1361639 L73.6011149,4.19991994 C73.8541778,3.55610751 73.5003997,3.03755166 72.8065484,3.03755166 M6.58151597,7.4259939 C6.58151597,7.01357148 6.69816714,5.6634777 8.22355639,5.6634777 C8.90657125,5.6634777 9.51532459,5.83176134 10.1986582,6.20657491 L10.2764256,6.24386504 C9.93826474,6.9887114 9.74894563,7.83108578 9.74894563,8.74772169 C9.74894563,8.79903546 9.76105696,8.85034922 9.76105696,8.9035753 C9.30114541,9.02182005 8.85175158,9.09990621 8.45717743,9.09990621 C7.60077941,9.09990621 6.58151597,8.80604727 6.58151597,7.4259939" mask="url(#logo-pokemon-company-d)"/>
    </g>
    <g transform="translate(0 .763)">
      <mask id="logo-pokemon-company-f" fill="#fff">
        <use xlink:href="#logo-pokemon-company-e"/>
      </mask>
      <path fill="#000" d="M23.812072,3.49806878 C22.0814277,3.49806878 20.6127704,4.08036843 19.5581292,5.08178361 C18.7230853,4.08036843 17.4561772,3.49806878 15.9078402,3.49806878 C15.5645798,3.49806878 15.2318371,3.52452246 14.9115245,3.59017857 L14.9115245,1.02098452 C14.9115245,0.551830118 14.5293804,0.16267419 14.0570388,0.16267419 L9.59051041,0.16267419 C9.13952299,0.16267419 8.7694902,0.519958216 8.74654243,0.962340221 L0.854740679,0.962340221 C0.380486771,0.962340221 -6.37438048e-05,1.34639665 -6.37438048e-05,1.81523233 L-6.37438048e-05,5.64113549 C-6.37438048e-05,6.10805886 0.380486771,6.49020297 0.854740679,6.49020297 L2.63829234,6.49020297 L2.63829234,14.2318881 C2.63829234,14.7042297 3.02234876,15.0863738 3.49660267,15.0863738 L19.8166103,15.0863738 C20.2341322,15.0863738 20.5793049,14.7839094 20.6516541,14.3912476 C21.6355398,14.9537867 22.8316923,15.2686811 24.1801925,15.2686811 C25.4914025,15.2686811 26.6910609,15.0548206 27.7351844,14.6459041 L28.2763693,14.4336372 C28.5772401,14.3131614 28.8162794,13.9612956 28.8162794,13.640983 L28.8162794,11.8944027 L29.5576198,11.8944027 L29.5576198,10.1886185 L29.5576198,9.68440503 C29.5576198,5.867426 27.3527216,3.49806878 23.812072,3.49806878" mask="url(#logo-pokemon-company-f)"/>
    </g>
    <path fill="#FFF" d="M112.304696 13.8871297C111.485588 14.0888788 110.582976 14.318994 109.128342 14.318994 106.272301 14.318994 102.970691 12.8751968 102.970691 8.82459672 102.970691 5.09271567 105.575262 3.23490248 109.107307 3.23490248 110.197326 3.23490248 111.253561 3.47904125 112.28366 3.79042974L112.055139 6.10337369C111.136909 5.59724788 110.248639 5.35820862 109.262841 5.35820862 107.237063 5.35820862 105.915017 6.83037179 105.915017 8.82459672 105.915017 10.9322856 107.406622 12.1972814 109.496144 12.1972814 110.430628 12.1972814 111.382642 11.955055 112.166372 11.648766 112.166372 11.648766 112.304696 13.8871297 112.304696 13.8871297M112.493951 10.1535594C112.493951 7.49576149 114.502518 5.95985452 117.145974 5.95985452 119.78433 5.95985452 121.797997 7.49576149 121.797997 10.1535594 121.797997 12.7919155 119.78433 14.3259102 117.145974 14.3259102 114.502518 14.3259102 112.493951 12.7919155 112.493951 10.1535594M118.940362 10.1535594C118.940362 8.95740694 118.4183 7.89734746 117.145974 7.89734746 115.872054 7.89734746 115.351905 8.95740694 115.351905 10.1535594 115.351905 11.3372819 115.872054 12.3973414 117.145974 12.3973414 118.4183 12.3973414 118.940362 11.3372819 118.940362 10.1535594M122.355245 6.13687106L124.869938 6.13687106 124.869938 7.61445246 124.90691 7.61445246C125.453832 6.45877728 126.559468 5.94914556 127.817771 5.94914556 128.959103 5.94914556 129.891675 6.44124773 130.319715 7.48505254 130.969264 6.41288174 132.023906 5.94914556 133.158227 5.94914556 135.458422 5.94914556 135.983989 7.25876203 135.983989 9.4228642L135.983989 14.1313003 133.223883 14.1313003 133.223883 9.83146199C133.223883 8.93267434 132.901658 8.25125307 132.121434 8.25125307 131.13213 8.25125307 130.551742 9.03338955 130.551742 10.7551097L130.551742 14.1313003 127.785899 14.1313003 127.785899 9.83146199C127.785899 8.93267434 127.465586 8.25125307 126.68345 8.25125307 125.706895 8.25125307 125.121089 9.03338955 125.121089 10.7551097L125.121089 14.1313003 122.355245 14.1313003 122.355245 6.13687106zM136.90955 6.13687106L139.457389 6.13687106 139.457389 7.57365642 139.484162 7.57365642C140.041283 6.45877728 141.207476 5.94914556 142.467372 5.94914556 144.679282 5.94914556 145.893283 8.04791033 145.893283 9.98731559 145.893283 12.349661 144.613944 14.3155199 142.230245 14.3155199 141.26612 14.3155199 140.227096 13.9633354 139.701847 13.013234L139.675393 13.013234 139.675393 17.3589679 136.90955 17.3589679 136.90955 6.13687106zM141.359823 8.06543988C140.349484 8.06543988 139.675393 8.95912802 139.675393 10.1571928 139.675393 11.3268917 140.441275 12.1938074 141.359823 12.1938074 142.403628 12.1938074 143.031823 11.3268917 143.031823 10.0456412 143.031823 8.98749401 142.4355 8.06543988 141.359823 8.06543988L141.359823 8.06543988zM151.849185 14.1314597C151.82815 13.7050136 151.789266 13.2874917 151.789266 12.8715634L151.755482 12.8715634C151.127286 13.871385 150.359492 14.3153606 149.230271 14.3153606 147.643369 14.3153606 146.227619 13.5332241 146.227619 11.8025798 146.227619 9.36278567 148.883505 9.07083904 150.359492 9.07083904 150.80538 9.07083904 151.29557 9.11322867 151.649348 9.17506016 151.633412 8.0850411 150.81781 7.79309447 149.821495 7.79309447 148.931631 7.79309447 148.041449 7.9610594 147.273655 8.39101136L147.229353 6.51726222C148.211326 6.11918216 149.239514 5.9473926 150.421643 5.9473926 152.465269 5.9473926 154.227466 6.82705711 154.227466 9.26366405L154.227466 12.2487864C154.227466 12.8715634 154.257745 13.5013522 154.384914 14.1314597L151.849185 14.1314597zM149.94197 12.471571C150.991193 12.471571 151.649348 11.5249755 151.649348 10.5869854 151.29557 10.5745554 150.895578 10.5391776 150.483474 10.5391776 149.54389 10.5391776 148.807649 10.8295306 148.807649 11.6011494 148.807649 12.1512584 149.301345 12.471571 149.94197 12.471571L149.94197 12.471571zM155.091163 6.13687106L157.603625 6.13687106 157.603625 7.61445246 157.637091 7.61445246C158.19453 6.45877728 159.295067 5.94914556 160.555282 5.94914556 162.728308 5.94914556 163.609566 7.48505254 163.609566 9.14494121L163.609566 14.1313003 160.845635 14.1313003 160.845635 10.261414C160.845635 8.75929119 160.323573 8.25125307 159.573309 8.25125307 158.438988 8.25125307 157.853182 9.03338955 157.853182 10.7551097L157.853182 14.1313003 155.091163 14.1313003 155.091163 6.13687106z"/>
    <path fill="#FFF" d="M164.203914 15.249781C164.572034 15.3683445 164.908283 15.4158336 165.29202 15.4158336 165.968023 15.4158336 166.491998 15.0215782 166.686416 14.3152968L163.452056 6.13696668 166.42666 6.13696668 168.148062 11.3550345 168.176428 11.3550345 169.818468 6.13696668 172.584312 6.13696668 169.650503 13.5758687C168.864861 15.5876232 168.268537 17.5394585 165.743327 17.5394585 165.159433 17.5394585 164.589564 17.4757147 164.020013 17.3571512L164.203914 15.249781zM31.9127941 3.42246862L35.3154384 3.42246862C38.5893202 3.42246862 40.1198089 4.52141182 40.1198089 6.93124636 40.1198089 9.09726085 38.5431059 10.392535 35.869372 10.392535L34.7653293 10.392535 34.7653293 14.1330214 31.9127941 14.1330214 31.9127941 3.42246862zM34.7653293 8.36643812L35.5031639 8.36643812C36.4870495 8.36643812 37.2656801 8.00883538 37.2656801 6.88726313 37.2656801 5.80234358 36.4870495 5.44665315 35.5031639 5.44665315L34.7653293 5.44665315 34.7653293 8.36643812zM40.1570034 10.1535594C40.1570034 7.49576149 42.165252 5.95985452 44.807114 5.95985452 47.4454701 5.95985452 49.455631 7.49576149 49.455631 10.1535594 49.455631 12.7919155 47.4454701 14.3259102 44.807114 14.3259102 42.165252 14.3259102 40.1570034 12.7919155 40.1570034 10.1535594M46.6034144 10.1535594C46.6034144 8.95740694 46.0794403 7.89734746 44.807114 7.89734746 43.5277758 7.89734746 43.0095387 8.95740694 43.0095387 10.1535594 43.0095387 11.3372819 43.5277758 12.3973414 44.807114 12.3973414 46.0794403 12.3973414 46.6034144 11.3372819 46.6034144 10.1535594"/>
    <polygon fill="#FFF" points="50.018 2.633 52.781 2.633 52.781 9.511 52.816 9.511 55.12 6.149 58.139 6.149 55.355 9.812 58.369 14.144 55.024 14.144 52.816 10.185 52.781 10.185 52.781 14.144 50.018 14.144"/>
    <polygon fill="#FFF" points="59.096 4.916 64.67 3.801 64.295 2.223 58.776 3.741"/>
    <path fill="#FFF" d="M60.3381008 10.9410185C60.4920421 12.0434676 61.339516 12.4734196 62.6825979 12.4734196 63.4363684 12.4734196 64.3036029 12.3070483 65.1316349 11.8630727L65.1316349 13.8145892C64.2363532 14.1667738 63.2221892 14.3172091 62.1962327 14.3172091 59.5575579 14.3172091 57.5438911 12.7707844 57.5438911 10.1305161 57.5438911 7.48706047 59.3417851 5.94924117 61.8261999 5.94924117 64.7899681 5.94924117 65.8640512 8.04959954 65.8640512 10.4364863L65.8640512 10.9410185 60.3381008 10.9410185zM63.3780429 9.37483324C63.3780429 8.45309783 62.9480909 7.70092093 61.8440482 7.70092093 60.8407207 7.70092093 60.3699727 8.45309783 60.3078225 9.37483324L63.3780429 9.37483324zM66.5454725 6.13687106L69.0652651 6.13687106 69.0652651 7.61445246 69.0987306 7.61445246C69.6510707 6.45877728 70.7516075 5.94914556 72.0130974 5.94914556 73.1455061 5.94914556 74.0834961 6.44124773 74.5153604 7.48505254 75.1610852 6.41288174 76.2211446 5.94914556 77.3535533 5.94914556 79.6575732 5.94914556 80.1758103 7.25876203 80.1758103 9.4228642L80.1758103 14.1313003 77.4172971 14.1313003 77.4172971 9.83146199C77.4172971 8.93267434 77.0880604 8.25125307 76.3113421 8.25125307 75.3293688 8.25125307 74.7470692 9.03338955 74.7470692 10.7551097L74.7470692 14.1313003 71.9812255 14.1313003 71.9812255 9.83146199C71.9812255 8.93267434 71.6609128 8.25125307 70.8806887 8.25125307 69.896803 8.25125307 69.3094039 9.03338955 69.3094039 10.7551097L69.3094039 14.1313003 66.5454725 14.1313003 66.5454725 6.13687106zM80.7510344 10.1535594C80.7510344 7.49576149 82.7573706 5.95985452 85.4011449 5.95985452 88.0414133 5.95985452 90.0496619 7.49576149 90.0496619 10.1535594 90.0496619 12.7919155 88.0414133 14.3259102 85.4011449 14.3259102 82.7573706 14.3259102 80.7510344 12.7919155 80.7510344 10.1535594M87.1955331 10.1535594C87.1955331 8.95740694 86.6734713 7.89734746 85.4011449 7.89734746 84.1253127 7.89734746 83.6105815 8.95740694 83.6105815 10.1535594 83.6105815 11.3372819 84.1253127 12.3973414 85.4011449 12.3973414 86.6734713 12.3973414 87.1955331 11.3372819 87.1955331 10.1535594M90.6106393 6.13687106L93.126926 6.13687106 93.126926 7.61445246 93.1568856 7.61445246C93.7073133 6.45877728 94.8132683 5.94914556 96.0750769 5.94914556 98.2512904 5.94914556 99.1271303 7.48505254 99.1271303 9.14494121L99.1271303 14.1313003 96.3616053 14.1313003 96.3616053 10.261414C96.3616053 8.75929119 95.8430495 8.25125307 95.089279 8.25125307 93.9530457 8.25125307 93.3726583 9.03338955 93.3726583 10.7551097L93.3726583 14.1313003 90.6106393 14.1313003 90.6106393 6.13687106z"/>
    <polygon fill="#FFF" points="4.348 5.535 1.711 5.535 1.711 3.417 9.847 3.417 9.847 5.535 7.204 5.535 7.204 14.126 4.348 14.126"/>
    <path fill="#FFF" d="M10.452486 2.63312909L13.218011 2.63312909 13.218011 7.32754159 13.2482893 7.32754159C13.8481185 6.50142188 14.7239584 5.96151186 15.9201109 5.96151186 18.0966431 5.96151186 18.9743953 7.49741883 18.9743953 9.15921982L18.9743953 14.1436666 16.2104639 14.1436666 16.2104639 10.2737803C16.2104639 8.77325109 15.6864898 8.26553168 14.9400499 8.26553168 13.802223 8.26553168 13.218011 9.04575585 13.218011 10.7693883L13.218011 14.1436666 10.452486 14.1436666 10.452486 2.63312909zM22.3328651 10.9410185C22.4833005 12.0434676 23.3272685 12.4734196 24.6808682 12.4734196 25.4330451 12.4734196 26.292949 12.3070483 27.1193874 11.8630727L27.1193874 13.8145892C26.2327111 14.1667738 25.21536 14.3172091 24.1890847 14.3172091 21.549135 14.3172091 19.5405677 12.7707844 19.5405677 10.1305161 19.5405677 7.48706047 21.3311312 5.94924117 23.8209642 5.94924117 26.7796329 5.94924117 27.8607279 8.04959954 27.8607279 10.4364863L27.8607279 10.9410185 22.3328651 10.9410185zM25.3693013 9.37483324C25.3693013 8.45309783 24.9428552 7.70092093 23.831482 7.70092093 22.8405845 7.70092093 22.3628247 8.45309783 22.3025868 9.37483324L25.3693013 9.37483324z"/>
  </g>
</svg>
